<svg class="nfasfg" width="204.625" height="62.5" style="margin: 68.75px 0px; zoom: 1;"><g transform="translate(37, 27.25)" style="display: inline;"><g><g><g><g transform="translate(4, -0.25)"><rect x="0" y="-10.5" rx="2" ry="2" width="22.40625" height="21.5" class="nfa-literal"></rect><text transform="translate(4, 4)" class="nfa-literal-text"><tspan class="nfa-escaped" dx="0" style="letter-spacing: 0px;">\b</tspan></text><path class="nfa-path" d="M-4,0.25H0"></path><path class="nfa-path" d="M26.40625,0.25H22.40625"></path></g><g transform="translate(42.40625, -0.25)"><g><rect x="0" y="-10.5" rx="2" ry="2" width="57.8125" height="21.5" class="nfa-charset"></rect><text transform="translate(4, 4)" class="nfa-charset-text"><tspan dx="0" style="letter-spacing: 0px;">0</tspan><tspan class="nfa-charset-range">-</tspan><tspan dx="0" style="letter-spacing: 0px;">9</tspan><tspan dx="7" style="letter-spacing: 0px;">a</tspan><tspan class="nfa-charset-range">-</tspan><tspan dx="0" style="letter-spacing: 0px;">f</tspan></text><path class="nfa-path" d="M-4,0.25H0"></path><path class="nfa-path" d="M61.8125,0.25H57.8125"></path><text class="nfa-label" x="28.90625" y="-12.5">One of</text></g><path class="nfa-path" d="M-12,0.25H-4"></path><path class="nfa-path" d="M69.8125,0.25H61.8125"></path><path class="nfa-path" d="M57.8125,0.25Q65.8125,0.25,65.8125,8.25V11Q65.8125,19,57.8125,19H0Q-8,19,-8,11V8.25Q-8,0.25,0,0.25"></path><text class="nfa-label" x="28.90625" y="30.5">5..40</text></g><g transform="translate(116.21875, -0.25)"><rect x="0" y="-10.5" rx="2" ry="2" width="22.40625" height="21.5" class="nfa-literal"></rect><text transform="translate(4, 4)" class="nfa-literal-text"><tspan class="nfa-escaped" dx="0" style="letter-spacing: 0px;">\b</tspan></text><path class="nfa-path" d="M-4,0.25H0"></path><path class="nfa-path" d="M26.40625,0.25H22.40625"></path></g></g></g><path class="nfa-path" d="M-4,0H0"></path><path class="nfa-path" d="M146.625,0H142.625"></path><circle class="nfa-start" cx="-12" cy="0" r="8"></circle><circle class="nfa-end" cx="154.625" cy="0" r="8"></circle><path class="nfa-path" d="M-20,0L-32,0M-20,0L-24.8,-3.2M-20,0L-24.8,3.2"></path></g></g><g class="backref-container"></g></svg>